<svg xmlns="http://www.w3.org/2000/svg" xmlns:xlink="http://www.w3.org/1999/xlink" width="233" zoomAndPan="magnify" viewBox="0 0 174.75 172.499995" height="230" preserveAspectRatio="xMidYMid meet" version="1.0"><defs><clipPath id="4da9ba7497"><path d="M 0.128906 0 L 174.371094 0 L 174.371094 172 L 0.128906 172 Z M 0.128906 0 " clip-rule="nonzero"/></clipPath><clipPath id="18b83f1be0"><path d="M 0.128906 1.09375 L 174.371094 1.09375 L 174.371094 171.09375 L 0.128906 171.09375 Z M 0.128906 1.09375 " clip-rule="nonzero"/></clipPath></defs><g clip-path="url(#4da9ba7497)"><path fill="#ffffff" d="M 0.128906 0 L 174.621094 0 L 174.621094 172.246094 L 0.128906 172.246094 Z M 0.128906 0 " fill-opacity="1" fill-rule="nonzero"/><path fill="#ffffff" d="M 0.128906 0 L 174.621094 0 L 174.621094 172.246094 L 0.128906 172.246094 Z M 0.128906 0 " fill-opacity="1" fill-rule="nonzero"/></g><g clip-path="url(#18b83f1be0)"><path fill="#ff7f50" d="M 44.980469 148.570312 C 51.195312 148.570312 56.25 153.617188 56.25 159.828125 C 56.25 166.042969 51.195312 171.09375 44.980469 171.09375 C 38.769531 171.09375 33.722656 166.042969 33.722656 159.828125 C 33.722656 153.617188 38.769531 148.570312 44.980469 148.570312 Z M 143.144531 148.570312 C 149.367188 148.570312 154.421875 153.617188 154.421875 159.828125 C 154.421875 166.042969 149.367188 171.09375 143.144531 171.09375 C 136.929688 171.09375 131.882812 166.042969 131.882812 159.828125 C 131.882812 153.617188 136.929688 148.570312 143.144531 148.570312 Z M 7.773438 1.175781 L 25.875 4.308594 C 28.789062 4.824219 31.007812 7.242188 31.261719 10.199219 L 33.304688 34.566406 L 40.910156 34.570312 C 42.152344 34.570312 43.378906 34.570312 44.59375 34.570312 L 58.554688 34.578125 C 59.667969 34.578125 60.765625 34.578125 61.855469 34.582031 L 77.269531 34.589844 C 78.238281 34.589844 79.195312 34.589844 80.140625 34.589844 L 90.941406 34.597656 C 91.796875 34.597656 92.644531 34.597656 93.476562 34.597656 L 102.980469 34.605469 C 103.730469 34.605469 104.46875 34.605469 105.199219 34.609375 L 113.484375 34.613281 C 114.132812 34.617188 114.777344 34.617188 115.410156 34.617188 L 120.855469 34.621094 C 121.429688 34.621094 122 34.625 122.558594 34.625 L 128.863281 34.632812 C 129.355469 34.632812 129.839844 34.632812 130.316406 34.632812 L 135.640625 34.640625 C 136.050781 34.640625 136.457031 34.640625 136.855469 34.640625 L 140.238281 34.648438 C 140.59375 34.648438 140.941406 34.648438 141.28125 34.648438 L 145.050781 34.65625 C 145.339844 34.65625 145.621094 34.660156 145.898438 34.660156 L 148.214844 34.664062 C 148.457031 34.664062 148.691406 34.667969 148.917969 34.667969 L 151.40625 34.675781 C 151.59375 34.675781 151.773438 34.675781 151.949219 34.675781 L 153.410156 34.683594 C 153.558594 34.683594 153.703125 34.683594 153.84375 34.683594 L 155.320312 34.691406 C 155.425781 34.695312 155.53125 34.695312 155.628906 34.695312 L 156.433594 34.699219 C 156.515625 34.703125 156.589844 34.703125 156.664062 34.703125 L 157.242188 34.710938 C 157.300781 34.710938 157.351562 34.710938 157.402344 34.710938 L 157.796875 34.71875 C 157.835938 34.71875 157.871094 34.71875 157.902344 34.71875 L 158.152344 34.726562 C 158.175781 34.726562 158.195312 34.726562 158.21875 34.726562 L 158.398438 34.738281 C 158.410156 34.738281 158.417969 34.738281 158.429688 34.738281 C 158.511719 34.746094 158.523438 34.75 158.539062 34.75 C 163.386719 35.453125 167.648438 37.984375 170.554688 41.882812 C 173.460938 45.773438 174.679688 50.566406 173.984375 55.367188 L 165.726562 112.421875 C 164.167969 123.277344 154.734375 131.464844 143.769531 131.464844 L 48.734375 131.464844 C 37.273438 131.464844 27.570312 122.519531 26.640625 111.082031 L 18.667969 16.304688 L 5.554688 14.042969 C 1.996094 13.417969 -0.378906 10.050781 0.226562 6.492188 C 0.855469 2.933594 4.292969 0.621094 7.773438 1.175781 Z M 39.164062 47.621094 L 34.402344 47.617188 L 39.648438 110.011719 C 40.03125 114.8125 43.957031 118.414062 48.75 118.414062 L 143.753906 118.414062 C 148.285156 118.414062 152.160156 115.039062 152.804688 110.558594 L 161.070312 53.496094 C 161.261719 52.140625 160.921875 50.785156 160.09375 49.6875 C 159.277344 48.582031 158.078125 47.867188 156.71875 47.675781 C 156.65625 47.679688 156.507812 47.683594 156.273438 47.683594 L 155.324219 47.691406 C 155.128906 47.691406 154.910156 47.691406 154.671875 47.691406 L 149.742188 47.699219 C 149.328125 47.699219 148.894531 47.699219 148.445312 47.699219 L 136.855469 47.699219 C 136.207031 47.699219 135.550781 47.699219 134.878906 47.699219 L 121.652344 47.691406 C 120.859375 47.691406 120.058594 47.691406 119.246094 47.6875 L 111.761719 47.683594 C 110.910156 47.683594 110.050781 47.679688 109.1875 47.679688 L 101.257812 47.671875 C 100.363281 47.671875 99.464844 47.671875 98.558594 47.671875 L 93.097656 47.667969 C 92.183594 47.664062 91.261719 47.664062 90.34375 47.664062 L 82.007812 47.65625 C 81.078125 47.65625 80.148438 47.652344 79.21875 47.652344 L 73.644531 47.648438 C 72.714844 47.648438 71.789062 47.648438 70.863281 47.644531 L 65.335938 47.640625 C 64.417969 47.640625 63.503906 47.640625 62.59375 47.636719 L 54.496094 47.632812 C 53.609375 47.628906 52.726562 47.628906 51.851562 47.628906 L 41.617188 47.621094 C 40.792969 47.621094 39.972656 47.621094 39.164062 47.621094 Z M 129.777344 66.722656 C 133.378906 66.722656 136.304688 69.648438 136.304688 73.25 C 136.304688 76.851562 133.378906 79.773438 129.777344 79.773438 L 105.65625 79.773438 C 102.042969 79.773438 99.128906 76.851562 99.128906 73.25 C 99.128906 69.648438 102.042969 66.722656 105.65625 66.722656 Z M 129.777344 66.722656 " fill-opacity="1" fill-rule="evenodd"/></g></svg>