<svg xmlns="http://www.w3.org/2000/svg" xmlns:xlink="http://www.w3.org/1999/xlink" width="40" zoomAndPan="magnify" viewBox="0 0 30 30.000001" height="40" preserveAspectRatio="xMidYMid meet" version="1.0"><defs><clipPath id="92e6a331b7"><path d="M 1.789062 4.90625 L 27.917969 4.90625 L 27.917969 23.777344 L 1.789062 23.777344 Z M 1.789062 4.90625 " clip-rule="nonzero"/></clipPath></defs><g clip-path="url(#92e6a331b7)"><path fill="#ff7f50" d="M 24.355469 9.625 L 20.792969 9.625 L 20.792969 4.910156 L 4.164062 4.910156 C 2.851562 4.910156 1.789062 5.964844 1.789062 7.269531 L 1.789062 20.234375 L 4.164062 20.234375 C 4.164062 22.183594 5.761719 23.769531 7.726562 23.769531 C 9.691406 23.769531 11.289062 22.183594 11.289062 20.234375 L 18.414062 20.234375 C 18.414062 22.183594 20.011719 23.769531 21.980469 23.769531 C 23.945312 23.769531 25.542969 22.183594 25.542969 20.234375 L 27.917969 20.234375 L 27.917969 14.339844 Z M 7.726562 22 C 6.742188 22 5.945312 21.210938 5.945312 20.234375 C 5.945312 19.253906 6.742188 18.464844 7.726562 18.464844 C 8.710938 18.464844 9.507812 19.253906 9.507812 20.234375 C 9.507812 21.210938 8.710938 22 7.726562 22 Z M 23.761719 11.394531 L 26.09375 14.339844 L 20.792969 14.339844 L 20.792969 11.394531 Z M 21.980469 22 C 20.992188 22 20.199219 21.210938 20.199219 20.234375 C 20.199219 19.253906 20.992188 18.464844 21.980469 18.464844 C 22.964844 18.464844 23.761719 19.253906 23.761719 20.234375 C 23.761719 21.210938 22.964844 22 21.980469 22 Z M 21.980469 22 " fill-opacity="1" fill-rule="nonzero"/></g></svg>