<svg xmlns="http://www.w3.org/2000/svg" xmlns:xlink="http://www.w3.org/1999/xlink" width="40" zoomAndPan="magnify" viewBox="0 0 30 30.000001" height="40" preserveAspectRatio="xMidYMid meet" version="1.0"><defs><clipPath id="f24e652ece"><path d="M 0.484375 0 L 29.515625 0 L 29.515625 29.03125 L 0.484375 29.03125 Z M 0.484375 0 " clip-rule="nonzero"/></clipPath><clipPath id="c703560034"><path d="M 2.742188 4 L 27.421875 4 L 27.421875 24 L 2.742188 24 Z M 2.742188 4 " clip-rule="nonzero"/></clipPath></defs><g clip-path="url(#f24e652ece)"><path fill="#ffffff" d="M 0.484375 0 L 29.515625 0 L 29.515625 29.03125 L 0.484375 29.03125 Z M 0.484375 0 " fill-opacity="1" fill-rule="nonzero"/><path fill="#ffffff" d="M 0.484375 0 L 29.515625 0 L 29.515625 29.03125 L 0.484375 29.03125 Z M 0.484375 0 " fill-opacity="1" fill-rule="nonzero"/></g><g clip-path="url(#c703560034)"><path fill="#ff7f50" d="M 21.910156 7.042969 C 10.277344 6.992188 4.03125 12.386719 3.496094 23.554688 C 3.488281 23.695312 3.28125 23.703125 3.261719 23.5625 C 2.742188 19.914062 2.84375 16.589844 3.777344 13.699219 C 6.855469 4.160156 18.59375 2.90625 26.921875 5.925781 C 27.335938 6.078125 27.421875 6.609375 27.078125 6.882812 C 20.578125 12.042969 21.464844 26.125 5.648438 20.023438 C 8.121094 12.398438 13.183594 7.675781 21.910156 7.042969 " fill-opacity="1" fill-rule="evenodd"/></g></svg>