<svg xmlns="http://www.w3.org/2000/svg" xmlns:xlink="http://www.w3.org/1999/xlink" width="233" zoomAndPan="magnify" viewBox="0 0 174.75 172.499995" height="230" preserveAspectRatio="xMidYMid meet" version="1.0"><defs><clipPath id="e2909aa4a3"><path d="M 0.128906 0 L 174.371094 0 L 174.371094 172 L 0.128906 172 Z M 0.128906 0 " clip-rule="nonzero"/></clipPath><clipPath id="f20494fa5f"><path d="M 0.128906 19.011719 L 174.371094 19.011719 L 174.371094 153.0625 L 0.128906 153.0625 Z M 0.128906 19.011719 " clip-rule="nonzero"/></clipPath></defs><g clip-path="url(#e2909aa4a3)"><path fill="#ffffff" d="M 0.128906 0 L 174.621094 0 L 174.621094 172.246094 L 0.128906 172.246094 Z M 0.128906 0 " fill-opacity="1" fill-rule="nonzero"/><path fill="#ffffff" d="M 0.128906 0 L 174.621094 0 L 174.621094 172.246094 L 0.128906 172.246094 Z M 0.128906 0 " fill-opacity="1" fill-rule="nonzero"/></g><g clip-path="url(#f20494fa5f)"><path fill="#ff7f50" d="M 87.160156 102.15625 L 88.0625 102.15625 L 90.082031 102.164062 C 105.515625 102.265625 140.78125 103.820312 140.78125 127.699219 C 140.78125 151.417969 106.742188 152.964844 90.320312 153.0625 L 84.238281 153.0625 C 68.804688 152.960938 33.527344 151.40625 33.527344 127.5625 C 33.527344 103.8125 68.804688 102.265625 84.238281 102.164062 L 86.257812 102.15625 C 86.570312 102.15625 86.871094 102.15625 87.160156 102.15625 Z M 87.160156 114.132812 C 68.167969 114.132812 45.519531 116.464844 45.519531 127.5625 C 45.519531 138.410156 66.8125 140.945312 85.421875 141.089844 L 87.160156 141.09375 C 106.152344 141.09375 128.789062 138.773438 128.789062 127.699219 C 128.789062 116.488281 106.152344 114.132812 87.160156 114.132812 Z M 150.738281 98.917969 C 170.109375 101.816406 174.175781 110.902344 174.175781 118.015625 C 174.175781 122.359375 172.464844 130.285156 161.035156 134.636719 C 160.332031 134.902344 159.613281 135.027344 158.902344 135.027344 C 156.488281 135.027344 154.207031 133.558594 153.296875 131.171875 C 152.113281 128.082031 153.671875 124.617188 156.765625 123.445312 C 162.1875 121.382812 162.1875 119.109375 162.1875 118.015625 C 162.1875 114.519531 157.734375 112.074219 148.957031 110.765625 C 145.6875 110.269531 143.425781 107.226562 143.914062 103.945312 C 144.398438 100.671875 147.4375 98.492188 150.738281 98.917969 Z M 30.398438 103.945312 C 30.886719 107.226562 28.625 110.269531 25.355469 110.765625 C 16.578125 112.074219 12.125 114.519531 12.125 118.015625 C 12.125 119.109375 12.125 121.375 17.550781 123.445312 C 20.644531 124.617188 22.203125 128.082031 21.023438 131.171875 C 20.109375 133.558594 17.832031 135.027344 15.417969 135.027344 C 14.707031 135.027344 13.988281 134.902344 13.285156 134.636719 C 1.84375 130.277344 0.132812 122.351562 0.132812 118.015625 C 0.132812 110.910156 4.203125 101.816406 23.578125 98.917969 C 26.882812 98.5 29.902344 100.671875 30.398438 103.945312 Z M 87.160156 19.011719 C 107.304688 19.011719 123.683594 35.378906 123.683594 55.488281 C 123.683594 75.601562 107.304688 91.96875 87.160156 91.96875 L 86.945312 91.96875 C 77.191406 91.9375 68.054688 88.121094 61.210938 81.222656 C 54.351562 74.332031 50.605469 65.183594 50.644531 55.464844 C 50.644531 35.378906 67.023438 19.011719 87.160156 19.011719 Z M 87.160156 30.988281 C 73.632812 30.988281 62.632812 41.980469 62.632812 55.488281 C 62.609375 62.035156 65.121094 68.160156 69.714844 72.785156 C 74.3125 77.40625 80.4375 79.96875 86.960938 79.992188 L 87.160156 85.980469 L 87.160156 79.992188 C 100.683594 79.992188 111.691406 69.007812 111.691406 55.488281 C 111.691406 41.980469 100.683594 30.988281 87.160156 30.988281 Z M 136.632812 26.832031 C 150.6875 29.136719 160.894531 41.144531 160.894531 55.382812 C 160.863281 69.714844 150.144531 82.007812 135.953125 83.996094 C 135.675781 84.035156 135.394531 84.054688 135.121094 84.054688 C 132.179688 84.054688 129.613281 81.890625 129.191406 78.894531 C 128.734375 75.613281 131.015625 72.585938 134.300781 72.132812 C 142.613281 70.96875 148.886719 63.765625 148.902344 55.367188 C 148.902344 47.039062 142.925781 39.996094 134.683594 38.648438 C 131.421875 38.113281 129.207031 35.03125 129.742188 31.765625 C 130.285156 28.5 133.347656 26.3125 136.632812 26.832031 Z M 44.578125 31.765625 C 45.113281 35.03125 42.898438 38.113281 39.636719 38.648438 C 31.394531 39.996094 25.414062 47.039062 25.414062 55.382812 C 25.429688 63.765625 31.707031 70.976562 40.011719 72.132812 C 43.296875 72.585938 45.574219 75.613281 45.121094 78.894531 C 44.695312 81.890625 42.128906 84.054688 39.1875 84.054688 C 38.917969 84.054688 38.636719 84.035156 38.355469 83.996094 C 24.167969 82.007812 13.457031 69.714844 13.425781 55.398438 C 13.425781 41.144531 23.632812 29.136719 37.683594 26.832031 C 41.050781 26.304688 44.03125 28.515625 44.578125 31.765625 Z M 44.578125 31.765625 " fill-opacity="1" fill-rule="evenodd"/></g></svg>