<svg xmlns="http://www.w3.org/2000/svg" xmlns:xlink="http://www.w3.org/1999/xlink" width="233" zoomAndPan="magnify" viewBox="0 0 174.75 172.499995" height="230" preserveAspectRatio="xMidYMid meet" version="1.0"><defs><clipPath id="b4d9a5a583"><path d="M 0.128906 0 L 174.371094 0 L 174.371094 172 L 0.128906 172 Z M 0.128906 0 " clip-rule="nonzero"/></clipPath></defs><g clip-path="url(#b4d9a5a583)"><path fill="#ffffff" d="M 0.128906 0 L 174.621094 0 L 174.621094 530.222656 L 0.128906 530.222656 Z M 0.128906 0 " fill-opacity="1" fill-rule="nonzero"/><path fill="#ffffff" d="M 0.128906 0 L 174.621094 0 L 174.621094 172.246094 L 0.128906 172.246094 Z M 0.128906 0 " fill-opacity="1" fill-rule="nonzero"/><path fill="#ffffff" d="M 0.128906 0 L 174.621094 0 L 174.621094 172.246094 L 0.128906 172.246094 Z M 0.128906 0 " fill-opacity="1" fill-rule="nonzero"/><path fill="#ff7f50" d="M 168.296875 111.125 C 171.902344 111.394531 174.597656 114.542969 174.328125 118.148438 L 172.667969 140.039062 C 171.296875 158.101562 156.054688 172.246094 137.949219 172.246094 L 36.730469 172.246094 C 18.625 172.246094 3.378906 158.101562 2.011719 140.039062 L 0.351562 118.148438 C 0.0820312 114.542969 2.785156 111.394531 6.390625 111.125 C 10.011719 110.992188 13.136719 113.550781 13.414062 117.160156 L 15.0625 139.046875 C 15.917969 150.320312 25.429688 159.160156 36.730469 159.160156 L 137.949219 159.160156 C 149.25 159.160156 158.769531 150.320312 159.613281 139.046875 L 161.273438 117.160156 C 161.550781 113.550781 164.753906 110.984375 168.296875 111.125 Z M 98.597656 0 C 111.710938 0 122.578125 9.828125 124.210938 22.503906 L 141.398438 22.511719 C 159.6875 22.511719 174.554688 37.425781 174.554688 55.765625 L 174.554688 85.773438 C 174.554688 88.101562 173.316406 90.25 171.320312 91.417969 C 149.78125 104.03125 122.496094 111.390625 93.882812 112.371094 L 93.886719 128.066406 C 93.886719 131.675781 90.953125 134.609375 87.339844 134.609375 C 83.730469 134.609375 80.796875 131.675781 80.796875 128.066406 L 80.792969 112.371094 C 52.203125 111.398438 24.917969 104.042969 3.363281 91.417969 C 1.359375 90.25 0.128906 88.101562 0.128906 85.773438 L 0.128906 55.679688 C 0.128906 37.390625 15.039062 22.511719 33.375 22.511719 L 50.46875 22.503906 C 52.105469 9.828125 62.96875 0 76.085938 0 Z M 141.398438 35.601562 L 33.375 35.601562 C 22.257812 35.601562 13.214844 44.605469 13.214844 55.679688 L 13.214844 81.960938 C 33.929688 93.214844 60.042969 99.382812 87.21875 99.394531 L 87.339844 99.382812 L 87.4375 99.386719 L 91.59375 99.34375 C 117.296875 98.730469 141.816406 92.632812 161.46875 81.960938 L 161.46875 55.765625 C 161.46875 44.640625 152.472656 35.601562 141.398438 35.601562 Z M 98.597656 13.089844 L 76.085938 13.089844 C 70.210938 13.089844 65.25 17.085938 63.785156 22.507812 L 110.898438 22.507812 C 109.433594 17.085938 104.472656 13.089844 98.597656 13.089844 Z M 98.597656 13.089844 " fill-opacity="1" fill-rule="evenodd"/></g></svg>