<svg xmlns="http://www.w3.org/2000/svg" xmlns:xlink="http://www.w3.org/1999/xlink" width="233" zoomAndPan="magnify" viewBox="0 0 174.75 172.499995" height="230" preserveAspectRatio="xMidYMid meet" version="1.0"><defs><clipPath id="948d9419d5"><path d="M 1.25 0 L 152 0 L 152 151 L 1.25 151 Z M 1.25 0 " clip-rule="nonzero"/></clipPath><clipPath id="be409a38fc"><path d="M 98 96 L 173.5 96 L 173.5 172 L 98 172 Z M 98 96 " clip-rule="nonzero"/></clipPath></defs><g clip-path="url(#948d9419d5)"><path fill="#ff7f50" d="M 26.144531 0.371094 C 25.710938 0.570312 25.035156 0.976562 24.667969 1.277344 C 23.691406 2.152344 2.09375 34.683594 1.65625 35.964844 C 1.082031 37.542969 1.082031 140.824219 1.621094 142.8125 C 2.5625 146.140625 5.894531 149.4375 9.324219 150.347656 C 10.46875 150.648438 19.789062 150.714844 47.40625 150.648438 C 83.742188 150.546875 83.976562 150.546875 84.886719 149.84375 C 86.667969 148.53125 87.207031 147.453125 87.207031 145.332031 C 87.207031 143.214844 86.667969 142.136719 84.886719 140.824219 C 83.976562 140.121094 83.742188 140.121094 47.980469 140.019531 L 12.015625 139.949219 L 12.015625 43.0625 L 55.046875 43.0625 L 55.144531 57.496094 C 55.246094 71.488281 55.28125 71.960938 55.953125 72.867188 C 56.996094 74.28125 58.207031 75.054688 59.6875 75.257812 C 60.796875 75.390625 62.511719 74.953125 68.839844 72.835938 L 76.609375 70.246094 L 84.378906 72.835938 C 90.707031 74.953125 92.421875 75.390625 93.53125 75.257812 C 95.011719 75.054688 96.222656 74.28125 97.265625 72.867188 C 97.9375 71.960938 97.972656 71.488281 98.074219 57.496094 L 98.175781 43.0625 L 141.203125 43.0625 L 141.269531 62.878906 C 141.371094 82.320312 141.371094 82.726562 142.078125 83.632812 C 143.390625 85.417969 144.464844 85.957031 146.585938 85.957031 C 148.703125 85.957031 149.78125 85.417969 151.09375 83.632812 C 151.800781 82.726562 151.800781 82.320312 151.902344 60.117188 C 151.96875 43.9375 151.902344 37.140625 151.597656 36.164062 C 151.125 34.449219 129.257812 1.78125 127.980469 0.839844 C 127.039062 0.167969 126.769531 0.167969 77.011719 0.101562 C 44.480469 0.0664062 26.683594 0.167969 26.144531 0.371094 Z M 59.285156 11.84375 C 59.183594 12.449219 58.375 17.257812 57.5 22.539062 L 55.886719 32.128906 L 36.304688 32.230469 L 16.726562 32.296875 L 23.859375 21.53125 L 31.023438 10.800781 L 45.253906 10.765625 L 59.484375 10.765625 Z M 84.414062 20.523438 C 85.289062 25.804688 86.097656 30.613281 86.199219 31.1875 L 86.398438 32.296875 L 66.785156 32.296875 L 66.988281 31.355469 C 67.089844 30.851562 67.863281 26.207031 68.738281 21.027344 C 69.578125 15.84375 70.320312 11.40625 70.386719 11.167969 C 70.519531 10.832031 71.933594 10.765625 76.675781 10.832031 L 82.800781 10.933594 Z M 129.359375 21.53125 L 136.492188 32.296875 L 116.914062 32.230469 L 97.332031 32.128906 L 95.71875 22.539062 C 94.84375 17.257812 94.035156 12.449219 93.933594 11.84375 L 93.734375 10.765625 L 107.964844 10.765625 L 122.195312 10.800781 Z M 87.375 52.785156 L 87.375 62.539062 L 82.429688 60.859375 C 79.703125 59.949219 77.082031 59.210938 76.609375 59.210938 C 76.136719 59.210938 73.515625 59.949219 70.789062 60.859375 L 65.84375 62.539062 L 65.84375 43.0625 L 87.375 43.0625 Z M 87.375 52.785156 " fill-opacity="1" fill-rule="nonzero"/></g><g clip-path="url(#be409a38fc)"><path fill="#ff7f50" d="M 129.425781 97.425781 C 121.050781 98.941406 112.808594 103.585938 107.492188 109.773438 C 95.011719 124.273438 95.011719 144.863281 107.492188 159.363281 C 114.324219 167.300781 125.1875 172.246094 135.820312 172.246094 C 156.476562 172.246094 173.5 155.222656 173.5 134.570312 C 173.5 116.300781 160.175781 100.554688 142.042969 97.425781 C 138.410156 96.789062 132.894531 96.789062 129.425781 97.425781 Z M 142.816406 108.664062 C 152.269531 111.320312 159.300781 118.519531 161.925781 128.175781 C 162.835938 131.507812 162.765625 137.964844 161.792969 141.398438 C 159.03125 151.019531 151.933594 158.015625 142.210938 160.675781 C 139.183594 161.515625 132.457031 161.515625 129.425781 160.675781 C 124.652344 159.394531 120.78125 157.210938 117.382812 153.945312 C 113.617188 150.347656 111.292969 146.476562 109.847656 141.398438 C 108.871094 137.964844 108.804688 131.507812 109.714844 128.175781 C 110.992188 123.398438 113.179688 119.53125 116.441406 116.132812 C 120.679688 111.726562 125.558594 109.101562 131.714844 107.992188 C 134.238281 107.519531 140.058594 107.890625 142.816406 108.664062 Z M 142.816406 108.664062 " fill-opacity="1" fill-rule="nonzero"/></g><path fill="#ff7f50" d="M 133.632812 118.890625 C 132.386719 119.464844 131.277344 120.640625 130.808594 121.886719 C 130.234375 123.367188 130.335938 135.34375 130.90625 136.6875 C 131.175781 137.292969 134.238281 140.589844 137.703125 144.054688 C 144.53125 150.816406 145.003906 151.085938 147.828125 150.546875 C 149.476562 150.246094 151.496094 148.226562 151.800781 146.578125 C 152.335938 143.820312 151.96875 143.214844 146.417969 137.597656 L 141.234375 132.382812 L 141.136719 127.101562 C 141.035156 121.378906 140.867188 120.910156 138.78125 119.328125 C 137.636719 118.488281 134.980469 118.25 133.632812 118.890625 Z M 133.632812 118.890625 " fill-opacity="1" fill-rule="nonzero"/></svg>