<svg xmlns="http://www.w3.org/2000/svg" xmlns:xlink="http://www.w3.org/1999/xlink" width="233" zoomAndPan="magnify" viewBox="0 0 174.75 172.499995" height="230" preserveAspectRatio="xMidYMid meet" version="1.0"><defs><clipPath id="fd9161aef1"><path d="M 12 0 L 163 0 L 163 172 L 12 172 Z M 12 0 " clip-rule="nonzero"/></clipPath></defs><g clip-path="url(#fd9161aef1)"><path fill="#ff7f50" d="M 43.203125 0.472656 C 41.386719 1.144531 39.46875 2.488281 38.492188 3.769531 C 37.113281 5.617188 13.328125 47.066406 12.824219 48.511719 C 12.421875 49.65625 12.351562 58.4375 12.351562 105.769531 C 12.351562 164.511719 12.320312 163.230469 13.800781 166.058594 C 14.707031 167.808594 17.332031 170.230469 19.351562 171.171875 L 21.269531 172.078125 L 153.480469 172.078125 L 155.398438 171.171875 C 157.417969 170.230469 160.042969 167.808594 160.949219 166.058594 C 162.429688 163.230469 162.398438 164.542969 162.398438 105.367188 C 162.398438 51.945312 162.363281 49.015625 161.792969 47.839844 C 160.410156 44.980469 136.628906 4.136719 135.785156 3.195312 C 135.28125 2.625 134.035156 1.714844 133.0625 1.144531 L 131.277344 0.167969 L 87.878906 0.101562 C 51.949219 0.0351562 44.246094 0.101562 43.203125 0.472656 Z M 82.328125 26.410156 L 82.328125 42.726562 L 55.078125 42.726562 C 40.109375 42.726562 27.828125 42.625 27.828125 42.523438 C 27.828125 42.421875 32 35.089844 37.113281 26.207031 L 46.398438 10.09375 L 82.328125 10.09375 Z M 137.46875 25.871094 C 142.480469 34.550781 146.652344 41.882812 146.785156 42.1875 C 146.988281 42.691406 144.800781 42.726562 119.875 42.726562 L 92.757812 42.726562 L 92.757812 10.09375 L 128.351562 10.09375 Z M 152.304688 106.8125 C 152.304688 160.371094 152.304688 160.808594 151.632812 161.480469 C 150.957031 162.15625 150.519531 162.15625 87.375 162.15625 C 24.230469 162.15625 23.792969 162.15625 23.117188 161.480469 C 22.445312 160.808594 22.445312 160.371094 22.445312 106.8125 L 22.445312 52.816406 L 152.304688 52.816406 Z M 152.304688 106.8125 " fill-opacity="1" fill-rule="nonzero"/></g><path fill="#ff7f50" d="M 104.195312 90.027344 C 103.726562 90.328125 98.207031 95.710938 91.917969 101.96875 L 80.476562 113.375 L 75.9375 108.796875 C 73.445312 106.308594 70.992188 104.019531 70.488281 103.753906 C 67.828125 102.371094 64.160156 104.121094 63.488281 107.148438 C 62.917969 109.640625 63.386719 110.347656 70.65625 117.679688 C 74.390625 121.449219 77.855469 124.746094 78.359375 125.015625 C 79.535156 125.621094 81.757812 125.621094 82.933594 125.015625 C 83.4375 124.746094 90 118.351562 97.535156 110.785156 C 109.277344 99.007812 111.261719 96.855469 111.5625 95.679688 C 112.136719 93.523438 111.292969 91.40625 109.34375 90.128906 C 108.132812 89.320312 105.339844 89.285156 104.195312 90.027344 Z M 104.195312 90.027344 " fill-opacity="1" fill-rule="nonzero"/></svg>