<svg xmlns="http://www.w3.org/2000/svg" xmlns:xlink="http://www.w3.org/1999/xlink" width="233" zoomAndPan="magnify" viewBox="0 0 174.75 172.499995" height="230" preserveAspectRatio="xMidYMid meet" version="1.0"><defs><clipPath id="141bb7544d"><path d="M 8 0 L 167 0 L 167 172 L 8 172 Z M 8 0 " clip-rule="nonzero"/></clipPath></defs><g clip-path="url(#141bb7544d)"><path fill="#ff7f50" d="M 86.636719 0.335938 C 77.484375 1.882812 69.949219 8.613281 66.785156 18 L 66.011719 20.351562 L 65.910156 60.453125 L 65.808594 100.589844 L 58.847656 100.589844 C 50.738281 100.589844 48.484375 100.960938 44.480469 102.910156 C 36.542969 106.746094 31.394531 113.675781 30.21875 122.222656 C 30.015625 123.734375 29.847656 130.195312 29.847656 137.226562 C 29.847656 150.851562 29.746094 151.792969 27.726562 155.527344 C 26.484375 157.882812 23.285156 161.28125 21.101562 162.558594 C 19.082031 163.734375 15.71875 164.746094 13.058594 164.980469 C 10.503906 165.214844 9.460938 165.820312 8.785156 167.4375 C 8.113281 169.019531 8.652344 170.699219 10.132812 171.609375 C 11.140625 172.246094 12.117188 172.246094 49.863281 172.179688 L 88.550781 172.078125 L 90.90625 171.304688 C 99.351562 168.445312 105.136719 162.660156 107.929688 154.25 C 108.671875 152.027344 108.703125 151.289062 108.839844 140.523438 L 108.972656 129.1875 L 121.890625 129.1875 C 135.921875 129.1875 136.191406 129.152344 137.164062 127.367188 C 137.535156 126.628906 137.601562 118.554688 137.636719 77.644531 L 137.667969 28.765625 L 150.992188 28.597656 C 165.59375 28.425781 165.089844 28.496094 165.996094 26.339844 C 166.601562 24.863281 166.570312 17.359375 165.929688 14.296875 C 165.222656 10.867188 163.640625 8.039062 160.984375 5.347656 C 158.496094 2.824219 155.265625 1.042969 152.035156 0.371094 C 149.949219 -0.0664062 89.191406 -0.101562 86.636719 0.335938 Z M 133.800781 7.234375 C 133.800781 7.300781 133.261719 8.34375 132.625 9.488281 C 130.335938 13.660156 130.4375 11.269531 130.4375 59.949219 L 130.4375 103.953125 L 128.351562 102.808594 C 123.875 100.386719 124.988281 100.457031 97.636719 100.421875 L 73.078125 100.421875 L 73.078125 22.371094 L 73.816406 20.015625 C 75.9375 13.253906 81.925781 8.242188 88.71875 7.402344 C 91.042969 7.132812 133.800781 6.964844 133.800781 7.234375 Z M 153.011719 8.34375 C 154.996094 9.320312 156.847656 11.167969 157.957031 13.289062 C 158.664062 14.667969 158.863281 15.542969 158.964844 18.234375 L 159.101562 21.53125 L 137.402344 21.53125 L 137.636719 18.738281 C 137.738281 17.226562 138.007812 15.40625 138.175781 14.734375 C 138.949219 11.941406 142.246094 8.613281 145.039062 7.738281 C 146.921875 7.164062 151.296875 7.503906 153.011719 8.34375 Z M 104.0625 109.742188 C 101.875 113.742188 101.875 113.777344 101.738281 132.886719 C 101.640625 149.574219 101.605469 150.277344 100.898438 152.398438 C 99.117188 157.847656 94.539062 162.425781 89.089844 164.242188 C 86.871094 164.980469 86.835938 165.015625 58.375 165.117188 C 42.664062 165.183594 29.847656 165.117188 29.847656 165.015625 C 29.847656 164.878906 30.519531 164.003906 31.359375 163.0625 C 33.246094 160.875 35.296875 157.042969 36.273438 153.746094 C 36.980469 151.355469 37.011719 150.378906 37.214844 136.417969 C 37.449219 121.917969 37.449219 121.582031 38.222656 119.597656 C 40.511719 113.8125 45.492188 109.402344 51.175781 108.160156 C 52.789062 107.824219 58.980469 107.6875 79.199219 107.6875 L 105.207031 107.65625 Z M 124.179688 108.796875 C 128.082031 110.582031 130.101562 113.945312 130.371094 118.992188 L 130.539062 122.121094 L 108.804688 122.121094 L 108.972656 118.992188 C 109.109375 116.570312 109.34375 115.425781 109.984375 114.011719 C 112.503906 108.597656 118.796875 106.273438 124.179688 108.796875 Z M 124.179688 108.796875 " fill-opacity="1" fill-rule="nonzero"/></g><path fill="#ff7f50" d="M 81.992188 22.101562 C 80.679688 23.011719 80.34375 23.617188 80.308594 25.128906 C 80.308594 26.242188 80.511719 26.746094 81.351562 27.554688 L 82.394531 28.597656 L 101.640625 28.597656 C 120.480469 28.597656 120.949219 28.597656 121.789062 27.921875 C 123.070312 26.914062 123.539062 25.230469 122.902344 23.785156 C 121.960938 21.464844 122.496094 21.53125 101.605469 21.53125 C 84.449219 21.53125 82.730469 21.566406 81.992188 22.101562 Z M 81.992188 22.101562 " fill-opacity="1" fill-rule="nonzero"/><path fill="#ff7f50" d="M 81.992188 43.632812 C 80.679688 44.542969 80.34375 45.148438 80.308594 46.660156 C 80.308594 47.773438 80.511719 48.277344 81.351562 49.082031 L 82.394531 50.125 L 101.640625 50.125 C 120.480469 50.125 120.949219 50.125 121.789062 49.453125 C 123.070312 48.445312 123.539062 46.761719 122.902344 45.316406 C 121.960938 42.996094 122.496094 43.0625 101.605469 43.0625 C 84.449219 43.0625 82.730469 43.09375 81.992188 43.632812 Z M 81.992188 43.632812 " fill-opacity="1" fill-rule="nonzero"/><path fill="#ff7f50" d="M 81.992188 65.164062 C 80.679688 66.074219 80.34375 66.679688 80.308594 68.191406 C 80.308594 69.300781 80.511719 69.808594 81.351562 70.613281 L 82.394531 71.65625 L 101.640625 71.65625 C 120.480469 71.65625 120.949219 71.65625 121.789062 70.984375 C 123.070312 69.976562 123.539062 68.292969 122.902344 66.847656 C 121.960938 64.527344 122.496094 64.59375 101.605469 64.59375 C 84.449219 64.59375 82.730469 64.625 81.992188 65.164062 Z M 81.992188 65.164062 " fill-opacity="1" fill-rule="nonzero"/><path fill="#ff7f50" d="M 81.992188 86.695312 C 80.679688 87.605469 80.34375 88.210938 80.308594 89.722656 C 80.308594 90.832031 80.511719 91.339844 81.351562 92.144531 L 82.394531 93.1875 L 101.640625 93.1875 C 120.480469 93.1875 120.949219 93.1875 121.789062 92.515625 C 123.070312 91.507812 123.539062 89.824219 122.902344 88.378906 C 121.960938 86.054688 122.496094 86.125 101.605469 86.125 C 84.449219 86.125 82.730469 86.15625 81.992188 86.695312 Z M 81.992188 86.695312 " fill-opacity="1" fill-rule="nonzero"/><path fill="#ff7f50" d="M 45.558594 122.996094 C 45.054688 123.464844 44.582031 124.171875 44.449219 124.542969 C 44.109375 125.652344 44.617188 127.335938 45.523438 128.210938 L 46.398438 129.015625 L 68.804688 129.117188 C 81.152344 129.152344 91.546875 129.117188 91.949219 129.050781 C 92.320312 128.949219 93.058594 128.445312 93.53125 127.972656 C 94.878906 126.664062 94.808594 124.542969 93.398438 123.164062 L 92.355469 122.121094 L 46.433594 122.121094 Z M 45.558594 122.996094 " fill-opacity="1" fill-rule="nonzero"/><path fill="#ff7f50" d="M 45.558594 144.527344 C 45.054688 144.996094 44.582031 145.703125 44.449219 146.074219 C 44.109375 147.183594 44.617188 148.867188 45.523438 149.742188 L 46.398438 150.546875 L 68.804688 150.648438 C 81.152344 150.683594 91.546875 150.648438 91.949219 150.582031 C 92.320312 150.480469 93.058594 149.976562 93.53125 149.503906 C 94.878906 148.195312 94.808594 146.074219 93.398438 144.695312 L 92.355469 143.652344 L 46.433594 143.652344 Z M 45.558594 144.527344 " fill-opacity="1" fill-rule="nonzero"/></svg>